<?xml version="1.0" ?>
<svg version="1.1" xmlns="http://www.w3.org/2000/svg" xmlns:xlink="http://www.w3.org/1999/xlink" width="13" height="14" viewBox="0 0 13 14">
    <path d="M6.5 4q0-0.625-0.438-1.062t-1.062-0.438-1.062 0.438-0.438 1.062q0 0.328 0.148 0.648-0.32-0.148-0.648-0.148-0.625 0-1.062 0.438t-0.438 1.062 0.438 1.062 1.062 0.438 1.062-0.438 0.438-1.062q0-0.328-0.148-0.648 0.32 0.148 0.648 0.148 0.625 0 1.062-0.438t0.438-1.062zM13.148 9.5q0 0.133-0.383 0.516t-0.516 0.383q-0.070 0-0.223-0.125t-0.285-0.258-0.301-0.312-0.191-0.203l-0.75 0.75 1.719 1.719q0.219 0.219 0.219 0.531 0 0.328-0.305 0.633t-0.633 0.305q-0.312 0-0.531-0.219l-5.242-5.242q-1.375 1.023-2.852 1.023-1.273 0-2.074-0.801t-0.801-2.074q0-1.25 0.742-2.445t1.937-1.937 2.445-0.742q1.273 0 2.074 0.801t0.801 2.074q0 1.477-1.023 2.852l2.773 2.773 0.75-0.75q-0.023-0.023-0.203-0.191t-0.312-0.301-0.258-0.285-0.125-0.223q0-0.133 0.383-0.516t0.516-0.383q0.102 0 0.18 0.078 0.047 0.047 0.359 0.348t0.641 0.621 0.676 0.672 0.57 0.609 0.223 0.32z"></path>
</svg>
