<svg xmlns="http://www.w3.org/2000/svg" viewBox="-64 -64 640 640"><path d="M136.736 512c-4.892-.008-10.322-2.061-15.92-4.997-11.941-6.265-20.13-14.185-13.293-27.218l166.101-316.638c-1.972-1.022-3.619-1.88-4.743-2.469-59.892-31.418-86.463-77.87-64.952-118.877 24.726-47.135 101.304-55.69 171.042-19.107 69.738 36.584 106.227 104.451 81.501 151.586-21.264 40.536-76.784 44.151-132.61 14.866-1.538-.807-4.033-2.103-6.857-3.567L150.768 502.471c-3.632 6.924-8.488 9.538-14.032 9.529zm-30.582-67.835l-3.144-1.649-.7-.366-42.546-22.32v-.001l-10.256-5.38c-1.738-.911-2.407-3.057-1.496-4.794l13.465-25.667c.906-1.728 3.036-2.399 4.768-1.509l.028.013 20.513 10.761c1.736.911 3.883.241 4.794-1.496l13.466-25.667c.911-1.737.24-3.883-1.497-4.794l-10.256-5.382-10.256-5.38c-1.737-.911-2.406-3.057-1.495-4.794l13.464-25.669c.911-1.737 3.058-2.406 4.794-1.494l10.258 5.38 26.697 14.005 16.548 8.681c.007.003.014.007.021.011l3.125 1.639-14.142 26.957-.973 1.855c0 .001-.001.003-.002.004l-20.063 38.245-2.041 3.888-11.424 21.779c-.002.004-.005.009-.008.014zm67.232-128.162l-3.145-1.651-14.938-7.837-11.794-6.187c-1.737-.911-2.408-3.057-1.497-4.794l13.466-25.667c.911-1.737 3.058-2.408 4.794-1.497l11.795 6.188 14.939 7.837c.007.003.014.007.021.01l3.125 1.64-1.651 3.145-6.731 12.834-6.733 12.833c-.003.005-.006.008-.009.013zm219.778-151.914c8.857.016 15.784-3.552 20.386-12.326 14.027-26.737-11.92-67.987-57.953-92.135-46.032-24.148-94.719-22.049-108.746 4.688-14.026 26.737 24.987 44.293 71.02 68.441 30.928 16.224 57.156 31.296 75.293 31.332z"/></svg>
