<svg xmlns="http://www.w3.org/2000/svg" viewBox="0 0 512 512"><path d="M167.12 408.16c-30.822-7.705-47.985-32.206-48.051-68.55-.017-11.625.817-17.195 3.719-24.667 7.105-18.331 25.936-32.141 50.72-37.244 12.326-2.535 16.129-5.254 16.129-11.542 0-1.968 1.468-7.856 3.252-13.06 8.139-23.683 23.234-43.415 39.345-51.487 16.863-8.456 25.386-10.358 45.784-10.241 28.988.15 43.432 6.438 63.663 27.687l11.125 11.675 9.957-3.452c48.218-16.696 96.287 11.725 100.173 59.193l1.067 12.993 9.491 3.402c27.119 9.724 39.862 30.122 37.56 60.111-1.517 19.614-10.674 35.275-25.201 43.048l-6.822 3.652-151.777.3c-116.635.217-153.712-.183-160.117-1.784zM53.337 387.179"/><path d="M53.337 387.178c-17.996-4.269-37.06-20.164-46-38.344C2.267 338.526 2 337.009 2 318.762c0-17.346.434-20.131 4.47-28.738 8.506-18.163 24.818-31.273 45.283-36.426 4.32-1.084 8.373-2.819 9.023-3.853.634-1.034 1.351-6.672 1.585-12.509 1.417-36.327 25.268-68.333 58.542-78.624 17.98-5.554 40.58-4.187 60.127 3.636 6.205 2.485 5.504 3.019 18.614-14.177 7.756-10.174 23.434-22.817 36.26-29.272 13.843-6.955 28.254-10.157 45.466-10.124 48.135.117 89.616 30.222 104.943 76.173 4.904 14.677 4.654 18.797-1.117 18.913-2.519.05-9.757 1.435-16.062 3.086l-11.475 2.985-10.474-10.474c-29.522-29.521-77.707-35.909-118.67-15.711-16.362 8.072-29.521 19.647-39.445 34.742-7.089 10.758-16.112 30.822-16.112 35.809 0 3.536-2.869 5.304-15.094 9.307-37.845 12.409-59.944 41.08-59.927 77.757 0 13.343 3.435 29.688 8.222 39.045 1.802 3.519 2.802 6.888 2.235 7.455-1.468 1.468-48.552.968-55.057-.584z"/></svg>
