<svg xmlns="http://www.w3.org/2000/svg" viewBox="0 0 512 512"><path d="M301.922 245.228s75.153-30.691 75.481-30.788c24.326-7.153 36.367-3.702 36.367-3.702-21.782-84.997-108.292-136.23-193.227-114.432-38.249 9.817-71.469 33.544-93.178 66.552.52-.013 16.472-4.123 52.398 9.869.961.375 122.159 72.501 122.159 72.501z"/><path d="M193.722 183.738l-.005.016c-20.037-12.418-43.146-18.983-66.716-18.951-.544 0-1.08.035-1.623.042C55.272 165.714-.858 223.292.01 293.451c.315 25.449 8.261 50.218 22.808 71.094l277.548-116.882z"/><path d="M415.757 212.725c-2.306-.154-4.622-.261-6.965-.261-14.069-.014-27.99 2.862-40.903 8.449l-.003-.011-63.547 26.762 195.299 117.067c27.027-50.213 8.262-112.843-41.913-139.89-12.965-6.989-27.275-11.12-41.967-12.116z"/><path d="M24.804 366.531c23.721 34.131 62.641 54.471 104.184 54.449h277.816c37.951.011 72.843-20.83 90.847-54.262L302.352 249.649z"/></svg>
