<svg xmlns="http://www.w3.org/2000/svg" viewBox="0 0 512 512"><path d="M512 324.266V187.734H386.845v136.532zm-85.334-22.755c-3.141-.001-5.687-2.547-5.688-5.688v-79.645c0-3.141 2.547-5.688 5.688-5.689h45.511c1.509 0 2.956.6 4.023 1.666 1.067 1.067 1.666 2.514 1.666 4.023v79.645c0 1.509-.599 2.956-1.666 4.023-1.067 1.067-2.514 1.666-4.023 1.666h-45.511z"/><path d="M432.355 250.311v-28.445h34.134v28.445zm0 39.822v-28.445h34.134v28.445zM0 172.562v166.876C0 349.893 8.507 358.4 18.962 358.4h26.549V193.422c.045-3.11 2.579-5.606 5.688-5.606 3.11 0 5.643 2.496 5.689 5.606V358.4h299.615c10.456 0 18.963-8.507 18.963-18.962V172.562c0-10.455-8.507-18.962-18.963-18.962H18.962C8.506 153.6 0 162.107 0 172.562zm295.368 83.751c.148 11.765-9.192 21.112-20.958 21.262-11.426-.432-20.774-9.774-20.341-21.201-.149-11.765 9.191-21.113 20.619-20.679 11.765-.152 21.112 9.19 20.68 20.618zm-51.18-34.829c1.304.76 2.253 2.006 2.637 3.465.384 1.459.173 3.011-.587 4.314-4.719 8.096-7.214 17.417-7.214 26.959v.017c-.174 9.953 2.132 19.047 6.841 27.11 1.566 2.712.647 6.18-2.058 7.759-2.704 1.579-6.176.676-7.768-2.021-5.775-9.887-8.615-20.993-8.391-32.943v-.026c0-11.452 3.028-22.753 8.761-32.584.759-1.304 2.006-2.253 3.465-2.637 1.459-.385 3.011-.173 4.314.587zm-28.934-21.34c1.269.816 2.161 2.104 2.481 3.579.319 1.474.04 3.016-.778 4.284-9.431 14.642-14.381 31.281-14.178 48.109-.2 17.442 4.632 34.222 13.829 48.579 1.695 2.646.924 6.165-1.723 7.86-2.646 1.694-6.165.923-7.859-1.723-10.391-16.223-15.76-35.168-15.626-54.712-.159-18.927 5.356-37.758 15.992-54.273 1.701-2.641 5.221-3.404 7.862-1.703zm-27.387-20.439c1.254.841 2.122 2.145 2.413 3.625.291 1.481-.018 3.017-.86 4.269-13.596 20.254-20.845 43.873-20.967 68.301-.298 24.616 6.711 48.369 20.273 68.783 1.701 2.615.978 6.112-1.621 7.839-2.598 1.727-6.102 1.039-7.855-1.542-14.529-21.871-22.185-47.259-22.185-73.525 0-.552.003-1.1.01-1.653.131-26.633 8.05-52.424 22.898-74.544 1.751-2.608 5.285-3.304 7.894-1.553z"/></svg>
