<svg viewBox="0 0 512 512" xmlns="http://www.w3.org/2000/svg"><path d="M465.69 311.917V200.083H363.175v111.834zm-69.897-18.639a4.66 4.66 0 01-4.659-4.659v-65.237a4.66 4.66 0 014.659-4.66h37.278a4.66 4.66 0 014.66 4.66v65.237a4.66 4.66 0 01-4.66 4.66h-37.278z"/><path d="M400.453 251.34v-23.299h27.959v23.299zm0 32.618v-23.299h27.959v23.299zM46.31 187.656v136.688c0 8.564 6.968 15.532 15.532 15.532h21.746V204.742a4.66 4.66 0 019.319 0v135.134h245.415c8.565 0 15.533-6.968 15.533-15.532V187.656c0-8.564-6.968-15.532-15.533-15.532H61.842c-8.565 0-15.532 6.968-15.532 15.532zm241.936 68.6c.122 9.637-7.529 17.293-17.166 17.416-9.359-.354-17.016-8.006-16.662-17.366-.122-9.636 7.529-17.293 16.889-16.938 9.637-.124 17.293 7.528 16.939 16.888zm-41.921-28.528a4.658 4.658 0 011.679 6.372c-3.865 6.631-5.909 14.266-5.909 22.082v.014c-.143 8.152 1.746 15.601 5.603 22.206a4.66 4.66 0 01-8.048 4.7c-4.73-8.099-7.057-17.196-6.873-26.984v-.021c0-9.381 2.48-18.637 7.176-26.69a4.657 4.657 0 016.372-1.679zm-23.7-17.48a4.659 4.659 0 011.395 6.441c-7.725 11.993-11.78 25.622-11.613 39.406-.164 14.287 3.794 28.031 11.327 39.791a4.66 4.66 0 01-7.849 5.027c-8.511-13.288-12.909-28.806-12.799-44.815-.13-15.503 4.387-30.927 13.099-44.455a4.66 4.66 0 016.44-1.395zm-22.433-16.741a4.656 4.656 0 011.272 6.466c-11.136 16.59-17.074 35.936-17.174 55.945-.244 20.163 5.497 39.619 16.606 56.34a4.66 4.66 0 01-7.762 5.158c-11.901-17.914-18.172-38.71-18.172-60.224 0-.452.003-.901.008-1.354.108-21.815 6.594-42.941 18.756-61.059a4.66 4.66 0 016.466-1.272z"/></svg>
